<?xml version="1.0" standalone="no"?>
<!DOCTYPE svg PUBLIC "-//W3C//DTD SVG 20010904//EN"
 "http://www.w3.org/TR/2001/REC-SVG-20010904/DTD/svg10.dtd">
<svg version="1.0" xmlns="http://www.w3.org/2000/svg"
 width="1024.000000pt" height="1024.000000pt" viewBox="0 0 1024.000000 1024.000000"
 preserveAspectRatio="xMidYMid meet">

<g transform="translate(0.000000,1024.000000) scale(0.100000,-0.100000)"
fill="#000000" stroke="none">
<path d="M4574 8880 c-150 -15 -422 -57 -549 -85 -486 -109 -1039 -363 -1455
-668 -344 -253 -640 -570 -895 -957 -106 -161 -132 -206 -245 -425 -275 -534
-410 -1099 -410 -1718 0 -226 13 -370 56 -625 40 -239 77 -382 149 -581 101
-277 176 -438 312 -669 214 -364 404 -606 701 -894 138 -133 200 -184 472
-379 171 -123 467 -285 730 -397 383 -165 879 -284 1255 -301 539 -25 1061 53
1525 227 114 42 529 237 609 285 285 173 459 287 541 355 276 230 519 506 745
847 348 524 507 891 619 1425 54 260 87 741 66 996 -53 676 -341 1417 -783
2014 -134 180 -229 290 -383 440 -273 265 -510 442 -871 648 -82 47 -134 73
-313 154 -259 118 -599 217 -958 280 -169 29 -191 31 -502 33 -179 2 -366 -1
-416 -5z m-10 -222 c8 -22 6 -32 -9 -48 -22 -25 -26 -25 -53 0 -21 20 -21 40
1 68 16 21 51 10 61 -20z m734 20 c16 -16 15 -50 -2 -73 -12 -16 -16 -17 -30
-6 -16 13 -22 71 -9 84 10 11 28 8 41 -5z m-333 -45 c43 -43 159 -210 204
-293 79 -147 129 -327 133 -482 1 -38 4 -68 6 -68 2 0 42 35 88 79 45 43 113
100 151 126 92 65 268 148 382 181 l93 26 25 -24 25 -25 -16 -179 c-9 -99 -27
-231 -40 -294 -13 -63 -23 -116 -22 -117 2 -2 27 10 57 27 126 68 334 127 483
137 89 6 94 5 115 -18 33 -35 25 -68 -64 -274 -79 -183 -133 -287 -186 -359
-16 -22 -29 -44 -29 -48 0 -4 26 -8 58 -8 95 0 233 -19 302 -41 113 -37 236
-108 306 -177 80 -79 89 -106 46 -142 -46 -38 -180 -116 -327 -190 -134 -67
-288 -116 -460 -146 -91 -16 -561 -31 -647 -20 -31 4 -64 13 -74 21 -18 13
-18 15 -1 32 15 15 43 19 190 25 281 11 367 22 602 79 125 30 185 51 275 95
120 58 290 161 290 175 0 13 -84 67 -153 99 -133 62 -278 81 -426 56 -111 -19
-144 -33 -271 -111 -248 -152 -560 -315 -601 -315 -7 0 -59 -23 -115 -50 -105
-52 -184 -71 -184 -44 0 8 -4 14 -10 14 -5 0 -10 9 -10 19 0 20 64 55 181 102
230 90 735 406 865 541 71 74 126 148 181 248 32 58 128 289 122 294 -11 9
-171 -18 -237 -39 -88 -29 -229 -99 -311 -153 -86 -57 -203 -181 -346 -366
-71 -93 -165 -213 -207 -266 -188 -237 -408 -382 -484 -319 -9 7 -43 16 -77
20 -43 5 -90 22 -162 57 -89 45 -111 62 -196 149 -106 110 -195 215 -324 383
-198 258 -278 331 -470 425 -132 66 -234 98 -346 111 -51 6 -61 4 -56 -7 3 -8
22 -54 42 -103 81 -198 180 -357 288 -464 125 -124 552 -395 695 -443 83 -28
157 -62 201 -94 19 -14 67 -32 114 -42 82 -18 117 -39 117 -70 -1 -44 -14 -48
-137 -47 -107 2 -199 19 -165 31 17 6 15 33 -2 33 -8 0 -12 7 -10 18 4 13 -7
21 -53 35 -187 60 -363 148 -596 298 -78 51 -157 98 -175 106 -118 50 -354 62
-487 24 -96 -27 -181 -71 -225 -116 -31 -32 -32 -35 -14 -41 10 -4 45 -25 77
-46 156 -105 418 -206 657 -253 170 -33 210 -45 210 -62 0 -7 4 -13 9 -13 5 0
8 -8 6 -17 -2 -10 -4 -22 -4 -27 -1 -13 -261 3 -328 20 -117 30 -320 98 -403
134 -75 32 -137 67 -352 202 -60 38 -61 59 -9 125 51 63 84 93 151 136 117 73
258 107 449 107 108 0 126 5 98 29 -29 24 -130 185 -168 269 -22 48 -68 144
-102 215 -52 109 -59 131 -51 154 17 51 48 59 176 46 137 -14 289 -58 415
-119 92 -44 113 -51 113 -36 0 4 -11 57 -25 117 -14 61 -32 188 -41 283 -23
246 -17 251 175 186 184 -63 330 -150 453 -272 48 -47 90 -83 94 -79 4 3 15
62 25 129 25 161 52 254 105 361 65 130 180 292 248 349 31 26 69 22 101 -9z
m-640 -3 c14 -16 16 -26 9 -52 -8 -28 -15 -33 -39 -33 -40 0 -56 41 -31 79 20
31 37 33 61 6z m1290 -44 c45 -19 69 -66 69 -136 -1 -74 -24 -117 -77 -141
-54 -24 -91 -24 -144 2 -57 28 -76 65 -71 139 9 119 111 182 223 136z m-1753
-92 c13 -28 5 -50 -26 -68 -33 -21 -63 53 -34 82 20 20 48 14 60 -14z m606 4
c17 -17 15 -48 -5 -70 -21 -24 -38 -23 -57 3 -16 23 -12 47 12 67 20 15 35 15
50 0z m1618 -14 c8 -32 -10 -74 -32 -74 -20 0 -54 28 -54 44 0 24 32 56 55 56
18 0 26 -7 31 -26z m-2616 -136 c65 -34 85 -67 85 -141 0 -80 -24 -128 -84
-170 -62 -43 -154 -50 -241 -18 l-60 22 -77 -52 c-187 -125 -538 -449 -694
-641 -101 -124 -260 -376 -314 -498 -84 -189 -173 -508 -183 -652 -5 -82 -10
-87 -69 -88 -34 0 -31 32 18 280 19 93 107 395 138 472 35 87 115 235 173 321
162 240 514 600 814 834 125 97 132 105 152 161 57 155 215 234 342 170z m688
10 c18 -18 14 -53 -8 -73 -20 -18 -21 -18 -45 5 -39 36 -28 80 20 80 12 0 26
-5 33 -12z m2314 -9 c9 -5 26 -24 38 -43 17 -28 20 -48 18 -96 l-3 -62 -55
-19 c-68 -24 -108 -18 -155 22 -112 99 21 267 157 198z m-2108 -74 c21 -32 20
-48 -4 -76 -20 -24 -20 -24 -35 -4 -26 33 -29 64 -10 85 23 26 29 25 49 -5z
m2524 -181 c48 -33 64 -103 40 -170 -11 -31 -9 -36 60 -131 39 -54 104 -137
145 -184 93 -108 287 -392 358 -524 30 -55 85 -165 124 -243 l70 -143 16 39
c31 71 33 116 9 192 -32 103 -16 178 50 234 37 31 88 34 130 9 36 -21 50 -52
50 -112 0 -41 -6 -56 -39 -97 -45 -57 -70 -106 -106 -201 -14 -37 -37 -79 -51
-94 l-24 -25 20 -62 c11 -35 36 -97 55 -140 18 -42 43 -104 55 -137 13 -33 26
-64 30 -68 5 -5 15 16 24 46 12 40 16 98 16 211 0 132 3 163 21 210 26 71 66
106 121 106 34 0 47 -7 80 -40 40 -39 40 -41 36 -102 -4 -57 -10 -71 -59 -144
-30 -44 -60 -93 -66 -110 -72 -191 -96 -234 -130 -234 -18 0 -16 -21 8 -82 35
-88 110 -311 116 -344 3 -20 0 -34 -10 -43 -25 -20 -55 3 -67 52 -29 109 -102
319 -134 387 -20 41 -36 81 -36 89 0 7 -19 57 -41 110 -85 196 -112 257 -139
316 -123 261 -173 361 -201 402 -18 27 -56 87 -85 135 -79 132 -219 323 -305
418 -43 47 -100 115 -127 151 -39 51 -60 69 -96 83 -104 40 -159 125 -129 201
17 45 164 72 211 39z m-560 -126 c30 -30 2 -108 -39 -108 -21 0 -49 36 -49 64
0 43 59 73 88 44z m-3712 -33 c9 -22 -28 -78 -144 -218 -96 -116 -127 -145
-140 -132 -21 20 110 226 198 309 61 59 77 66 86 41z m935 5 c12 -7 19 -21 19
-38 0 -56 -50 -71 -75 -22 -27 51 6 86 56 60z m3789 -95 c103 -53 62 -225 -53
-225 -31 0 -88 39 -104 70 -7 14 -13 44 -13 68 0 85 88 129 170 87z m-460
-220 c38 -20 50 -43 50 -100 0 -35 -6 -52 -24 -70 -49 -49 -121 -40 -157 19
-23 37 -24 67 -4 106 30 57 79 74 135 45z m-4629 -31 c12 -15 -1 -45 -101
-240 -63 -123 -121 -224 -127 -224 -21 0 -15 83 10 153 25 69 137 272 168 306
24 25 32 26 50 5z m714 -8 c53 -22 45 -43 -22 -56 -141 -30 -339 -167 -436
-303 -56 -78 -217 -221 -232 -206 -10 11 95 163 182 263 161 186 280 274 413
306 51 12 57 11 95 -4z m4673 -91 c61 -51 66 -132 12 -187 -24 -23 -37 -28
-78 -28 -57 0 -91 21 -116 74 -20 43 -20 69 0 111 19 40 45 53 106 54 36 1 53
-5 76 -24z m-1349 -99 l23 -24 -83 -79 c-45 -43 -119 -114 -163 -158 -45 -44
-142 -133 -216 -197 -196 -170 -309 -250 -370 -263 -34 -7 -31 -3 61 92 53 54
105 109 115 122 39 50 195 219 271 292 94 92 296 236 334 239 3 0 16 -11 28
-24z m-3288 -7 c57 -19 97 -56 109 -99 22 -81 -29 -135 -178 -185 -37 -13
-146 -58 -242 -100 -96 -43 -204 -89 -240 -102 -81 -31 -124 -56 -173 -102
-50 -47 -71 -82 -95 -161 -21 -67 -40 -224 -22 -183 11 27 42 48 98 65 l42 13
0 56 c0 31 5 70 11 87 23 67 136 98 206 57 60 -35 94 -132 72 -205 -15 -51
-82 -129 -107 -125 -9 2 -22 4 -28 4 -7 1 -44 26 -84 57 -69 53 -73 55 -86 36
-14 -21 -99 -78 -123 -84 -15 -3 -43 -50 -99 -163 -40 -82 -58 -105 -84 -105
-25 0 -23 20 12 120 17 47 39 120 50 162 64 247 125 394 187 449 41 36 187
110 343 174 161 66 392 178 409 198 24 30 6 47 -47 47 -37 0 -73 -11 -148 -46
-69 -33 -115 -48 -151 -50 l-53 -3 15 23 c18 27 84 71 185 121 114 58 155 66
221 44z m696 -60 c114 -76 238 -193 428 -406 192 -214 207 -233 189 -233 -73
0 -304 183 -633 502 l-164 159 23 24 c13 14 29 25 36 25 7 0 61 -32 121 -71z
m3431 -5 c32 -22 52 -67 52 -115 0 -35 -6 -47 -36 -75 -30 -29 -43 -34 -84
-34 -60 0 -105 33 -120 90 -14 53 -5 84 36 120 28 24 44 30 82 30 27 0 57 -7
70 -16z m-5206 -140 c-2 -21 -19 -84 -38 -139 -39 -109 -46 -138 -69 -265 -10
-55 -23 -91 -35 -102 -25 -24 -37 -23 -46 4 -6 20 -7 20 -16 3 -7 -11 -8 -57
-4 -120 7 -103 1 -130 -24 -100 -6 7 -18 53 -27 101 -13 78 -13 94 1 158 9 39
23 83 30 98 8 15 17 42 21 60 4 18 37 92 72 163 87 175 142 232 135 139z
m4804 31 c4 -8 3 -27 0 -41 -5 -19 -12 -25 -29 -22 -22 3 -34 35 -23 64 7 19
45 18 52 -1z m609 -219 c42 -18 65 -61 65 -121 0 -64 -39 -105 -100 -105 -36
0 -48 6 -81 39 -33 33 -39 45 -39 80 0 53 13 77 53 101 38 24 57 25 102 6z
m-736 -239 c49 -17 61 -41 34 -68 -19 -19 -38 -23 -132 -30 -127 -9 -168 -19
-266 -61 -106 -45 -320 -118 -349 -118 -36 0 -42 19 -15 45 26 25 235 136 339
180 140 60 304 82 389 52z m-3104 -27 c136 -43 355 -156 355 -184 0 -6 14 -24
30 -40 17 -16 28 -31 26 -33 -7 -7 -148 38 -256 82 -124 50 -293 95 -361 95
-95 0 -148 50 -102 96 24 24 211 15 308 -16z m3932 -126 c26 -16 231 -259 241
-284 3 -8 25 -37 49 -64 48 -54 52 -66 23 -66 -29 0 -85 31 -154 84 -32 25
-61 46 -65 46 -65 4 -148 23 -177 41 -49 30 -94 102 -94 150 0 40 36 94 74
110 26 11 73 3 103 -17z m-5797 -149 c0 -7 11 -17 24 -24 28 -16 58 -69 76
-134 15 -56 10 -66 -23 -44 -42 27 -167 254 -150 271 8 8 73 -54 73 -69z
m6715 -89 c67 -29 94 -121 61 -212 -17 -48 -133 -240 -187 -311 -36 -47 -88
-83 -119 -83 -13 0 -11 38 8 165 6 39 16 114 21 167 16 147 63 242 135 274 39
17 40 17 81 0z m-5930 -62 c-27 -24 -54 -44 -59 -44 -5 0 -30 -13 -55 -29 -25
-16 -58 -33 -73 -36 -25 -6 -28 -4 -28 16 1 13 7 35 14 48 13 23 90 80 110 82
28 1 69 8 72 12 2 2 18 1 36 -1 l32 -5 -49 -43z m4554 -46 c98 -46 156 -140
156 -253 0 -58 -5 -78 -27 -117 -92 -155 -323 -182 -453 -53 -49 50 -65 91
-65 167 1 102 53 195 137 245 79 46 167 50 252 11z m-3978 -14 c62 -12 118
-115 86 -158 -13 -18 -16 -17 -70 19 -48 32 -64 37 -108 36 -95 -2 -179 -59
-255 -172 -100 -151 -136 -285 -155 -573 -14 -213 0 -542 27 -641 52 -196 211
-347 382 -362 112 -10 245 55 342 166 29 34 61 61 72 61 11 0 25 -13 35 -35
24 -51 5 -104 -60 -169 -116 -114 -332 -173 -496 -135 -116 26 -239 115 -310
223 -83 127 -118 271 -128 525 l-6 174 -91 -7 c-50 -4 -118 -9 -152 -13 l-61
-5 -6 -122 c-8 -161 -27 -242 -83 -356 -58 -118 -129 -191 -229 -241 -66 -32
-74 -34 -180 -34 -92 0 -118 4 -157 22 -66 30 -143 105 -175 172 -37 74 -39
191 -6 263 31 69 97 134 168 168 172 82 375 -10 375 -171 0 -55 -51 -109 -102
-109 -54 0 -64 12 -50 58 18 58 15 78 -13 101 -76 59 -200 17 -246 -84 -22
-48 -24 -133 -5 -180 32 -75 118 -127 211 -128 197 -1 341 202 362 511 l6 94
-64 -6 c-80 -8 -113 6 -117 50 -5 46 26 68 107 74 l66 5 3 301 2 301 -72 -14
c-78 -15 -183 -10 -266 12 -41 10 -52 10 -83 -6 -51 -25 -146 -131 -158 -177
-38 -135 29 -288 133 -308 86 -16 187 63 170 132 -8 30 -55 54 -108 54 -38 0
-70 25 -62 47 3 8 6 19 6 24 0 19 66 49 108 49 52 0 75 -11 124 -58 63 -60 72
-127 28 -212 -64 -125 -240 -183 -364 -120 -63 32 -120 97 -147 169 -18 48
-20 70 -16 151 5 103 25 162 72 212 67 73 145 109 187 87 l23 -12 -21 24 c-33
37 -74 124 -80 173 -6 38 -3 45 17 60 40 27 58 20 81 -31 56 -127 114 -166
248 -166 112 0 270 40 366 94 65 37 110 38 126 4 16 -36 -8 -66 -95 -115 l-74
-42 -6 -142 c-7 -136 -10 -466 -4 -466 1 0 65 7 142 15 77 8 147 15 156 15 14
0 17 21 22 138 9 208 40 337 122 508 35 73 57 103 113 156 123 115 238 151
393 122z m2491 -69 c98 -34 190 -148 203 -251 21 -156 -110 -304 -269 -304
-71 0 -128 29 -151 76 -18 38 -18 46 -3 79 14 31 28 31 73 1 54 -37 88 -41
138 -17 54 26 77 65 77 130 0 66 -19 112 -61 144 -70 53 -206 61 -300 18 -226
-102 -364 -352 -362 -656 2 -238 74 -403 227 -520 46 -35 160 -75 216 -75 83
0 192 71 219 143 12 30 15 336 4 376 -6 23 -9 23 -72 17 -36 -3 -98 -12 -138
-18 -66 -11 -74 -10 -93 7 -28 25 -22 63 13 89 24 17 49 21 190 28 192 9 197
10 239 47 63 54 155 67 203 29 34 -27 51 -66 60 -140 4 -32 10 -58 14 -58 3 0
21 26 40 56 74 123 242 194 307 129 24 -24 24 -26 9 -62 -20 -48 -65 -104 -96
-120 -21 -11 -26 -10 -41 8 -10 12 -18 27 -18 35 0 32 -39 9 -108 -63 -40 -43
-77 -88 -83 -101 -5 -13 -9 -107 -9 -209 0 -182 0 -186 27 -234 16 -30 23 -53
17 -58 -5 -5 -59 -12 -119 -16 -96 -6 -113 -5 -125 9 -11 15 -8 22 26 57 l39
40 0 302 c0 344 8 320 -92 297 l-53 -11 0 -232 c0 -272 -5 -289 -91 -357 -75
-59 -137 -88 -217 -100 -92 -15 -172 0 -281 51 -69 32 -99 54 -166 122 -141
143 -190 282 -189 542 0 188 21 282 96 428 93 182 253 311 438 352 78 18 196
13 262 -10z m2044 -1 c83 -39 171 -147 323 -393 59 -96 57 -105 -23 -95 -56 7
-179 49 -184 63 -2 5 -12 7 -22 4 -11 -3 -20 0 -20 6 0 6 -5 11 -11 11 -35 0
-185 163 -214 233 -52 125 37 225 151 171z m-3856 -32 c39 -39 47 -110 25
-217 -24 -116 -82 -245 -111 -245 -18 0 -18 18 1 105 17 82 19 172 5 211 -10
25 -12 26 -29 10 -23 -21 -36 -66 -55 -186 -33 -204 -50 -428 -50 -660 -1
-255 5 -299 49 -340 22 -21 36 -24 98 -25 70 0 72 -1 72 -25 0 -17 -12 -33
-43 -55 -38 -26 -53 -30 -107 -30 -59 0 -67 3 -99 34 -19 18 -48 62 -66 97
l-31 63 -68 -69 c-94 -96 -174 -134 -286 -134 -69 -1 -89 3 -145 30 -36 17
-87 53 -113 78 -179 174 -157 527 42 684 192 152 462 67 461 -145 0 -35 -8
-74 -19 -99 -23 -50 -80 -116 -126 -144 -51 -31 -172 -70 -249 -81 -38 -5 -71
-11 -73 -13 -12 -11 39 -96 80 -133 112 -103 245 -76 405 83 l82 83 0 167 c0
376 58 760 133 885 57 93 160 127 217 71z m370 -9 c42 -38 53 -92 40 -194 -13
-107 -23 -142 -71 -245 -51 -112 -115 -201 -178 -249 -28 -21 -53 -45 -56 -54
-10 -25 -24 -201 -25 -297 0 -145 28 -255 75 -294 11 -9 44 -15 85 -16 100 -3
113 -18 62 -75 -23 -25 -38 -33 -79 -36 -28 -3 -67 0 -86 6 -71 24 -152 139
-183 264 -17 65 -15 175 7 402 31 317 125 647 215 755 55 65 142 79 194 33z
m524 -29 c9 -25 7 -62 -5 -69 -20 -13 -59 4 -59 26 0 49 49 82 64 43z m1551
-99 c29 -28 30 -34 11 -80 -10 -23 -27 -41 -50 -52 -34 -16 -38 -16 -72 0 -43
21 -67 69 -52 103 25 53 122 71 163 29z m-1686 -34 c55 -51 35 -122 -40 -146
-30 -10 -109 58 -109 94 0 74 91 106 149 52z m4091 -66 c60 -31 64 -87 18
-278 -13 -56 -44 -67 -100 -34 -62 36 -89 69 -95 116 -5 37 -1 49 33 98 81
119 91 125 144 98z m-4153 -385 c95 -42 178 -137 207 -239 18 -62 21 -183 6
-262 -16 -82 -70 -187 -125 -241 -72 -71 -123 -93 -220 -93 -70 0 -87 4 -132
29 -69 38 -158 132 -188 198 -14 30 -29 85 -34 123 -46 323 230 598 486 485z
m2508 17 c17 -13 17 -22 5 -168 -7 -85 -11 -234 -9 -331 4 -161 6 -179 25
-205 22 -29 45 -33 118 -22 41 6 55 -20 34 -64 -20 -42 -70 -67 -136 -67 -64
0 -97 25 -132 103 l-27 59 -39 -52 c-56 -73 -124 -105 -224 -105 -58 1 -85 6
-118 23 -61 32 -113 90 -152 169 -29 58 -34 81 -38 158 -5 101 11 163 69 269
44 82 138 179 197 204 107 46 204 37 272 -24 l38 -34 9 37 c13 54 67 79 108
50z m627 -9 c57 -17 134 -93 143 -141 14 -72 -41 -135 -130 -152 -69 -14 -97
70 -41 121 32 31 24 48 -32 64 -104 28 -215 -35 -279 -160 -25 -50 -28 -65
-28 -160 0 -83 4 -112 19 -140 43 -82 124 -140 195 -140 54 0 88 14 143 61 26
21 50 39 53 39 4 0 18 9 32 20 35 28 42 25 38 -14 -4 -49 -85 -169 -136 -203
-39 -26 -51 -28 -133 -28 -77 0 -98 4 -136 24 -87 46 -135 96 -174 181 -66
146 -66 272 1 410 91 187 277 274 465 218z m673 -7 c98 -44 149 -119 147 -213
-1 -32 -8 -72 -17 -89 -24 -46 -93 -117 -140 -145 -63 -36 -181 -73 -257 -81
-64 -5 -68 -7 -62 -27 14 -44 35 -75 71 -104 85 -66 150 -82 244 -58 165 43
277 153 364 360 37 86 60 116 91 116 31 0 66 -53 58 -90 -19 -85 -127 -265
-205 -342 -120 -118 -251 -173 -398 -166 -75 3 -99 9 -154 36 -150 74 -227
205 -227 385 0 175 114 363 252 416 69 26 178 28 233 2z m-6933 -298 c10 -9
18 -25 18 -36 0 -25 -27 -57 -48 -57 -22 0 -52 30 -52 52 0 53 45 75 82 41z
m7368 -501 c34 -27 37 -103 10 -232 -39 -187 -68 -242 -210 -405 -159 -182
-329 -310 -515 -385 l-110 -45 -170 -170 c-93 -94 -234 -228 -313 -299 -176
-159 -263 -250 -419 -436 -137 -164 -341 -370 -454 -459 -92 -72 -105 -94 -51
-86 191 27 235 25 406 -19 174 -46 376 -28 543 49 68 31 73 31 73 2 0 -48
-107 -117 -249 -161 -155 -49 -283 -45 -494 15 -104 30 -115 31 -255 27 -141
-4 -151 -6 -245 -42 -109 -41 -156 -45 -95 -8 20 13 49 37 65 55 16 18 53 51
83 75 29 24 101 87 159 141 58 54 123 113 145 131 54 48 232 243 363 401 94
113 359 379 586 589 182 168 379 502 413 700 8 47 19 101 25 120 18 55 100
223 122 248 28 31 60 28 91 -9 21 -24 26 -41 26 -82 0 -69 -23 -199 -49 -272
-26 -72 -49 -108 -140 -214 -65 -76 -142 -201 -124 -201 16 0 354 262 430 334
167 155 253 323 269 519 7 86 25 137 48 137 8 0 24 -8 36 -18z m-6408 -69 c42
-44 44 -72 9 -141 -29 -56 -31 -70 -31 -162 0 -88 4 -114 35 -210 25 -76 50
-131 82 -177 167 -245 214 -327 233 -415 7 -31 10 -68 6 -82 -5 -22 -12 -26
-41 -26 -31 0 -37 5 -52 38 -10 20 -45 78 -79 127 -177 260 -268 461 -300 666
-17 105 -13 159 11 179 11 9 15 33 15 82 0 72 16 119 47 137 27 16 37 13 65
-16z m6238 -92 c0 -24 -75 -203 -106 -251 -30 -49 -85 -98 -91 -82 -3 6 -8 10
-13 7 -18 -11 -3 27 75 187 56 117 135 198 135 139z m-4432 -218 c20 -32 48
-73 61 -90 l25 -33 34 48 c19 26 43 66 55 90 20 39 24 42 52 36 16 -3 34 -10
38 -14 5 -4 -24 -61 -65 -126 l-73 -119 -1 -78 c0 -42 -5 -82 -11 -88 -6 -6
-23 -9 -39 -7 -29 3 -29 3 -34 88 l-5 85 -77 116 c-43 64 -78 121 -78 126 0
14 17 21 53 22 23 1 34 -9 65 -56z m690 38 c83 -43 135 -126 135 -212 -1 -104
-67 -184 -174 -209 -70 -17 -126 0 -190 57 -92 84 -102 210 -22 303 66 76 171
102 251 61z m622 -12 l58 -31 -31 -28 c-31 -28 -32 -28 -56 -9 -48 38 -145 15
-181 -43 -63 -103 18 -232 134 -213 51 8 76 30 76 67 0 29 -1 29 -47 27 l-48
-3 -3 35 -3 36 92 0 91 0 -7 -86 c-8 -100 -19 -118 -98 -151 -58 -25 -113 -23
-175 9 -137 71 -170 250 -65 353 78 76 167 88 263 37z m463 14 c34 -39 172
-385 163 -410 -4 -9 -17 -13 -38 -11 -26 2 -37 11 -53 40 l-20 38 -90 0 -90 0
-20 -38 c-16 -29 -27 -38 -53 -40 -60 -6 -53 28 52 254 31 67 56 125 56 130 0
5 7 20 16 32 18 26 55 29 77 5z m-4368 -162 c152 -146 254 -227 410 -321 173
-106 256 -171 375 -293 58 -59 219 -221 359 -360 139 -139 294 -301 344 -362
163 -197 229 -266 402 -419 347 -307 395 -351 395 -363 0 -18 -46 -16 -104 3
-85 29 -485 412 -709 679 -208 248 -770 809 -865 863 -37 22 -129 74 -205 116
-172 97 -253 161 -426 337 -148 152 -169 183 -145 218 8 11 22 21 31 21 8 0
71 -53 138 -119z m959 103 c35 -13 7 -69 -31 -62 -22 4 -29 34 -13 53 14 17
21 18 44 9z m-483 -74 c25 -14 49 -62 49 -98 0 -19 -10 -39 -27 -57 -24 -23
-34 -26 -68 -22 -57 8 -110 66 -101 110 10 48 43 77 88 77 22 0 48 -5 59 -10z
m1789 -10 c25 -13 35 -47 19 -66 -10 -12 -39 -14 -163 -12 l-151 3 -3 29 c-2
16 2 34 8 40 24 24 247 29 290 6z m4040 -80 c0 -100 -22 -161 -78 -217 -35
-35 -57 -71 -81 -128 -60 -147 -89 -203 -138 -267 -26 -36 -61 -83 -78 -106
-35 -48 -73 -70 -87 -50 -16 22 -1 140 27 218 42 115 66 157 174 301 57 76
119 173 146 228 54 112 70 129 97 104 14 -12 18 -31 18 -83z m-1285 66 c28
-28 24 -51 -8 -60 -43 -11 -262 -7 -275 6 -17 17 -15 35 8 58 18 18 33 20 135
20 110 0 117 -1 140 -24z m-3902 -67 c92 -48 91 -131 -1 -179 -53 -27 -126 38
-120 107 2 30 10 42 37 60 38 26 53 28 84 12z m557 -39 c62 -44 91 -180 56
-263 -15 -38 -64 -82 -111 -101 -43 -18 -48 -29 -40 -77 7 -39 8 -40 38 -34
50 11 108 49 161 105 31 33 52 48 58 42 15 -15 -24 -82 -74 -128 -46 -42 -80
-59 -140 -69 l-38 -6 0 -57 c0 -78 26 -336 40 -395 12 -56 38 -122 45 -115 2
2 16 35 30 74 33 87 63 138 120 205 54 64 96 89 147 89 43 0 89 -34 108 -81
12 -27 11 -36 -4 -63 -18 -33 -62 -66 -90 -66 -8 0 -29 14 -46 30 l-31 31 -27
-20 c-53 -37 -68 -64 -127 -219 -31 -84 -33 -77 47 -230 49 -94 59 -132 35
-132 -21 0 -41 20 -94 95 -95 133 -149 249 -177 375 -42 198 -59 359 -52 502
l7 127 -40 26 c-54 33 -71 62 -78 129 -10 100 34 192 112 231 44 22 131 20
165 -5z m-1659 -173 c115 -111 201 -176 347 -262 72 -44 132 -82 132 -85 0 -3
-13 -14 -30 -23 -16 -10 -30 -25 -30 -33 0 -11 18 -14 91 -14 114 0 157 -19
235 -104 50 -54 53 -60 39 -76 -8 -9 -13 -19 -10 -22 3 -3 -29 1 -71 8 -240
42 -426 144 -624 343 -145 147 -219 268 -196 326 11 29 42 14 117 -58z m5127
-9 c111 -86 216 -254 264 -423 17 -62 22 -105 22 -195 0 -141 -23 -230 -92
-363 -26 -51 -65 -129 -86 -175 -42 -88 -98 -151 -104 -117 -2 9 12 63 31 119
53 152 54 158 18 210 -17 25 -80 94 -140 153 -90 89 -111 117 -125 159 -19 58
-17 72 26 194 27 79 30 97 34 265 4 146 8 183 21 197 27 30 71 22 131 -24z
m1922 27 c0 -32 -45 -133 -82 -182 -98 -133 -255 -261 -424 -347 -98 -51 -366
-125 -373 -105 -2 7 -7 6 -12 -2 -8 -12 -11 -11 -19 1 -8 12 -2 22 26 45 20
17 84 71 143 121 90 76 127 100 241 154 159 75 229 122 342 228 46 44 92 84
103 90 28 16 55 15 55 -3z m-3499 -152 c98 -89 202 -289 245 -472 8 -36 20
-71 26 -78 14 -17 30 -7 117 76 121 115 324 236 489 291 156 52 162 46 162
-185 0 -210 -24 -366 -64 -420 -17 -23 -126 -39 -126 -18 0 7 11 56 25 110 30
114 48 383 26 383 -24 0 -222 -99 -293 -147 -90 -60 -246 -208 -286 -271 -17
-26 -42 -92 -57 -147 -34 -129 -92 -287 -119 -327 -11 -17 -33 -40 -47 -50
-28 -21 -97 -40 -112 -31 -15 9 1 67 81 303 l77 225 -1 105 c-1 111 -29 232
-75 323 -42 83 -122 208 -129 200 -4 -4 -32 -44 -62 -88 -96 -140 -168 -340
-168 -465 0 -60 55 -284 106 -429 38 -110 53 -191 36 -191 -22 0 -68 22 -91
43 -58 54 -100 149 -152 344 -41 153 -67 203 -147 286 -116 120 -332 266 -469
318 l-26 10 6 -158 c4 -122 11 -180 30 -253 13 -52 23 -96 22 -98 -2 -2 -26 0
-55 4 -63 8 -79 29 -107 138 -14 57 -18 110 -18 271 0 226 4 255 38 255 43 0
132 -32 241 -86 144 -73 229 -128 329 -217 45 -41 92 -79 104 -86 27 -14 28
-12 77 129 21 58 53 134 73 170 73 135 190 270 233 270 11 0 38 -17 61 -37z
m-2295 -30 c12 -23 20 -52 19 -65 -1 -13 -3 -30 -4 -39 0 -9 -9 -19 -20 -22
-40 -10 -77 104 -50 154 15 28 30 20 55 -28z m953 -7 c15 -8 32 -26 39 -41 24
-53 -41 -140 -87 -116 -58 32 -78 106 -39 148 25 27 48 29 87 9z m2621 -26
c24 -24 26 -62 4 -95 -23 -35 -44 -39 -71 -14 -27 26 -31 74 -7 107 19 27 48
28 74 2z m838 -74 c32 -31 35 -95 7 -126 -30 -33 -62 -42 -101 -30 -85 28
-101 133 -26 175 36 20 90 12 120 -19z m-3774 -51 c4 -15 0 -39 -9 -58 -15
-32 -176 -200 -208 -218 -21 -12 -47 -1 -47 21 0 37 227 299 248 286 5 -3 13
-17 16 -31z m-1693 -208 c118 -117 207 -150 460 -171 137 -11 150 -14 169 -36
l22 -25 -29 -12 c-36 -17 -290 -8 -382 13 -101 23 -232 97 -302 172 -33 35
-59 72 -59 84 0 19 24 47 41 48 4 0 40 -33 80 -73z m1130 -57 c69 -128 84
-185 55 -209 -33 -27 -141 138 -167 256 -13 57 -2 87 29 81 9 -2 46 -59 83
-128z m103 105 c20 -30 7 -33 -25 -4 -13 11 -18 18 -11 14 6 -3 12 -1 12 4 0
17 6 13 24 -14z m5416 -11 c12 -22 12 -29 -5 -60 -44 -83 -185 -172 -335 -213
-91 -25 -245 -28 -338 -6 -78 18 -103 31 -96 49 4 10 44 15 158 20 84 4 184
14 222 21 103 21 238 92 304 159 30 31 59 56 65 56 7 0 18 -11 25 -26z m-1172
-56 c6 -67 -87 -248 -125 -244 -10 0 -21 5 -24 10 -10 13 69 234 93 264 6 7
21 12 32 10 16 -2 22 -11 24 -40z m-2158 -23 c22 -44 25 -65 28 -181 4 -117 1
-142 -22 -226 -34 -126 -55 -177 -66 -158 -4 8 -18 60 -30 115 -28 129 -30
286 -6 369 25 83 49 137 61 133 5 -2 21 -25 35 -52z m-1291 1 c17 -21 9 -77
-12 -90 -37 -22 -64 55 -31 88 19 20 28 20 43 2z m2609 -43 c5 -70 -26 -104
-62 -67 -19 18 -21 85 -4 102 7 7 24 12 38 10 22 -3 25 -9 28 -45z m-2102 -71
c128 -93 282 -312 309 -439 9 -43 -8 -43 -60 -1 -43 36 -142 98 -156 98 -5 0
-9 5 -9 10 0 6 -7 10 -15 10 -8 0 -15 4 -15 9 0 5 -9 11 -20 14 -13 3 -35 37
-66 104 -54 115 -65 174 -39 203 23 26 25 25 71 -8z m1578 -5 c13 -20 14 -29
2 -75 -8 -28 -23 -66 -34 -84 -22 -36 -67 -79 -75 -72 -2 2 -10 -2 -17 -11 -7
-8 -19 -15 -26 -15 -12 0 -19 -19 -15 -42 0 -5 -5 -8 -13 -8 -8 0 -16 -4 -18
-9 -6 -17 -172 -143 -202 -154 -16 -7 -18 -4 -12 23 9 47 63 176 88 214 67 97
249 256 295 256 7 0 19 -10 27 -23z m-3546 -188 c218 -15 319 -47 455 -146 39
-29 107 -109 107 -126 0 -3 -35 10 -77 27 -169 71 -249 93 -439 116 -98 12
-154 7 -154 -15 0 -17 94 -48 218 -71 115 -21 317 -87 418 -135 83 -41 156
-95 175 -131 10 -19 9 -20 -22 -15 -19 4 -90 11 -159 17 -148 13 -207 26 -372
80 -166 55 -288 117 -388 198 -78 63 -150 148 -150 177 0 8 7 21 17 30 17 18
26 18 371 -6z m5791 -7 c20 -38 -58 -142 -172 -228 -107 -81 -344 -181 -517
-217 -77 -17 -392 -29 -384 -16 2 4 36 28 74 54 92 61 248 125 400 164 204 52
285 79 305 101 18 20 18 20 -59 20 -134 0 -352 -55 -545 -138 -50 -22 -91 -36
-91 -32 0 14 91 103 150 147 78 59 183 108 270 128 49 12 146 20 280 25 113 3
222 7 242 8 27 2 40 -3 47 -16z m-4209 -118 c292 -33 555 -165 820 -408 144
-133 194 -159 299 -160 115 0 167 28 326 173 309 284 615 403 1040 404 189 1
215 -5 215 -51 0 -15 -11 -65 -24 -112 -67 -243 -191 -434 -375 -572 -127 -97
-198 -132 -272 -134 -81 -3 -137 -23 -315 -109 -342 -166 -536 -197 -819 -131
-145 33 -170 43 -327 121 -102 51 -170 77 -292 111 -203 56 -243 75 -347 166
-180 159 -294 347 -361 598 -31 116 -30 116 172 119 69 0 186 -6 260 -15z
m3960 -328 c0 -61 -93 -133 -282 -214 -144 -63 -233 -84 -363 -85 -121 -1
-245 25 -320 66 -52 29 -55 49 -11 72 35 19 36 19 143 -8 123 -31 217 -34 320
-12 120 25 264 83 403 162 87 49 110 54 110 19z m-5535 -32 c108 -62 212 -107
320 -139 113 -33 237 -36 382 -10 96 17 103 17 128 1 40 -26 30 -56 -29 -84
-113 -54 -289 -55 -490 -3 -208 54 -436 193 -436 265 0 28 42 18 125 -30z
m352 -375 c152 -53 198 -62 308 -55 63 3 135 15 195 32 75 21 115 27 192 26
110 -1 178 -15 178 -38 0 -8 7 -17 15 -20 30 -12 13 -22 -47 -29 -35 -4 -117
-23 -183 -42 -103 -30 -140 -36 -261 -40 -163 -6 -254 11 -377 72 -78 38 -167
99 -167 115 0 18 58 10 147 -21z m3281 -218 c47 -29 -206 -165 -450 -241 -21
-6 -28 -5 -28 5 0 19 56 58 156 107 49 24 128 65 177 91 86 46 119 55 145 38z
m815 -55 c49 -14 124 -30 168 -37 43 -6 86 -17 96 -24 17 -13 17 -15 0 -32
-30 -30 -136 -29 -284 2 -194 42 -331 34 -480 -29 -32 -13 -123 -49 -203 -79
-542 -207 -571 -214 -800 -208 -223 6 -367 5 -515 -4 -122 -7 -137 -6 -238 19
-100 25 -303 105 -552 219 -170 78 -259 100 -410 100 -79 0 -170 -7 -230 -17
-209 -36 -275 -33 -275 14 0 15 17 22 88 38 244 57 301 64 442 60 120 -4 148
-9 255 -42 69 -21 199 -75 305 -126 198 -94 322 -140 436 -160 63 -11 80 -11
145 5 82 21 70 20 470 10 207 -6 304 -4 354 4 78 14 247 75 410 149 129 58
329 126 453 153 114 25 243 19 365 -15z m-3145 -236 c121 -15 229 -50 496
-156 350 -141 336 -139 871 -139 496 0 565 7 750 71 510 179 568 194 763 201
145 5 154 5 150 -13 -6 -34 -63 -56 -166 -64 -106 -9 -346 -77 -597 -170 -312
-114 -481 -136 -1005 -127 -417 7 -491 23 -937 201 -215 86 -294 106 -432 111
-85 4 -97 6 -120 29 -33 34 -20 46 56 56 85 11 82 11 171 0z"/>
<path d="M4885 8487 c-65 -87 -153 -234 -177 -295 -91 -236 -107 -500 -43
-712 23 -79 64 -230 180 -662 25 -92 45 -172 45 -178 0 -18 -50 -3 -79 23 -40
37 -90 162 -158 397 -130 451 -159 525 -247 631 -117 142 -265 245 -480 333
l-39 16 6 -102 c14 -222 72 -426 148 -523 22 -27 65 -81 95 -120 31 -38 109
-142 173 -230 136 -188 299 -377 367 -427 27 -20 87 -59 134 -88 l85 -52 50
12 c125 32 268 168 461 440 138 193 224 305 336 434 72 83 116 173 142 288 21
89 46 267 46 322 0 55 7 55 -127 -1 -194 -81 -382 -244 -477 -411 -67 -118
-128 -309 -231 -722 -49 -198 -66 -230 -121 -230 -33 0 -32 16 21 292 45 232
69 325 140 553 35 111 39 131 43 268 5 160 -2 216 -45 357 -31 104 -77 197
-155 312 -58 87 -74 100 -93 75z m52 -269 c60 -66 92 -200 95 -398 2 -137 -1
-159 -45 -390 -63 -322 -70 -353 -84 -357 -13 -5 -29 42 -38 112 -4 28 -27
146 -52 264 -44 210 -45 218 -41 360 5 134 8 156 43 266 41 134 57 165 83 165
10 0 28 -10 39 -22z m831 -400 c25 -32 22 -55 -10 -101 -18 -26 -79 -111 -134
-189 -70 -98 -134 -207 -205 -343 -134 -262 -181 -339 -208 -343 -29 -5 -28
35 4 97 13 27 49 122 79 213 62 186 90 254 143 342 79 132 268 333 314 336 4
0 11 -6 17 -12z m-1613 -66 c70 -61 169 -178 212 -249 13 -24 61 -141 105
-260 112 -304 122 -337 114 -359 -7 -18 -9 -17 -27 6 -62 78 -151 226 -229
380 -83 165 -187 335 -259 424 -17 21 -31 49 -31 62 0 22 23 54 40 54 5 0 39
-26 75 -58z"/>
<path d="M4884 7915 c-33 -70 -15 -315 23 -315 15 0 47 64 45 92 0 9 10 47 23
84 20 56 21 70 10 78 -7 6 -29 30 -49 54 l-35 42 -17 -35z"/>
<path d="M6817 6181 c-15 -3 -43 -19 -63 -35 -95 -75 -80 -202 29 -255 159
-77 302 77 207 221 -42 64 -98 86 -173 69z"/>
<path d="M2906 5415 c-54 -19 -91 -59 -131 -137 -40 -80 -55 -156 -34 -169 41
-26 180 9 255 63 75 53 118 171 80 220 -28 38 -101 48 -170 23z"/>
<path d="M3928 6013 c-60 -67 -172 -533 -128 -533 15 0 53 83 109 238 51 142
70 236 57 286 -8 30 -17 33 -38 9z"/>
<path d="M4225 5425 c-5 -2 -22 -6 -38 -9 -44 -10 -102 -70 -133 -138 -23 -52
-29 -80 -32 -160 -5 -116 13 -181 67 -241 120 -133 276 -84 352 110 58 149 7
358 -99 412 -37 18 -99 32 -117 26z"/>
<path d="M6503 5395 c-103 -52 -182 -178 -191 -305 -4 -58 -1 -76 22 -126 38
-83 72 -123 123 -146 42 -18 46 -19 94 -3 66 22 102 54 144 130 l35 63 -2 183
-3 184 -39 19 c-64 31 -123 32 -183 1z"/>
<path d="M8021 5420 c-89 -21 -173 -140 -196 -279 l-7 -44 76 6 c120 9 230 70
272 150 8 15 15 48 16 73 1 53 -19 79 -71 94 -40 11 -43 11 -90 0z"/>
<path d="M4549 4293 c-58 -36 -77 -119 -39 -180 68 -112 230 -59 230 76 0 37
-6 49 -39 82 -33 34 -45 39 -82 39 -24 0 -56 -8 -70 -17z"/>
<path d="M5735 4245 c-41 -96 -45 -113 -27 -117 9 -2 35 -1 57 2 l40 5 -26 75
-26 75 -18 -40z"/>
<path d="M6525 3736 c-7 -36 22 -165 76 -334 16 -51 29 -97 29 -102 0 -23 -33
-7 -86 41 -37 33 -63 49 -76 47 -34 -5 -31 -22 14 -78 120 -147 171 -230 184
-295 l7 -40 18 40 c26 56 25 238 0 360 -27 129 -120 371 -150 390 -6 3 -13
-10 -16 -29z"/>
<path d="M8175 3599 c-4 -6 -5 -13 -2 -16 7 -7 27 6 27 18 0 12 -17 12 -25 -2z"/>
<path d="M3494 2804 c30 -158 217 -416 379 -525 33 -21 93 -50 135 -63 130
-41 211 -75 357 -146 77 -38 190 -88 250 -111 104 -40 117 -42 244 -47 227 -8
331 21 641 180 145 74 219 106 287 124 107 27 126 36 210 97 64 48 174 176
232 272 33 55 101 213 101 236 0 16 -262 5 -360 -15 -102 -21 -119 -26 -243
-80 -128 -54 -234 -122 -373 -238 -199 -166 -290 -208 -451 -208 -154 1 -247
44 -457 215 -136 109 -223 166 -350 225 -187 87 -262 106 -480 117 l-129 6 7
-39z m411 -136 c125 -36 266 -122 430 -263 171 -147 303 -219 462 -251 153
-32 307 3 477 109 54 34 135 95 180 135 178 160 356 252 557 286 44 8 89 -7
89 -30 0 -25 -59 -75 -126 -108 -32 -16 -99 -59 -149 -97 -49 -37 -130 -88
-180 -114 -49 -26 -160 -85 -245 -131 -242 -130 -408 -176 -557 -155 -111 16
-264 70 -393 139 -58 31 -144 75 -192 99 -48 23 -145 82 -215 131 -71 49 -155
104 -188 121 -102 55 -152 124 -107 150 20 12 62 7 157 -21z"/>
<path d="M9079 3531 c-21 -17 -22 -20 -9 -51 15 -35 47 -70 65 -70 15 0 45 64
45 95 0 44 -60 59 -101 26z"/>
<path d="M9210 3184 c-30 -7 -100 -29 -155 -49 -139 -51 -231 -56 -340 -21
-101 33 -115 33 -115 2 0 -32 42 -62 116 -81 121 -31 244 -13 448 66 101 38
124 57 109 83 -7 11 -19 10 -63 0z"/>
<path d="M9100 2900 c-115 -38 -306 -80 -366 -80 -27 0 -91 9 -143 20 -112 24
-131 25 -131 6 0 -29 46 -65 107 -86 134 -44 344 -14 574 81 86 36 99 45 99
65 0 32 -30 31 -140 -6z"/>
<path d="M8805 2579 c-111 -34 -175 -34 -293 -4 -34 9 -77 15 -95 13 -26 -2
-32 -7 -32 -27 0 -21 9 -28 55 -44 80 -29 291 -35 379 -12 90 23 163 62 159
83 -5 27 -63 24 -173 -9z"/>
<path d="M8805 2264 c-146 -57 -209 -67 -355 -54 -69 6 -154 15 -190 20 -36 5
-102 10 -146 10 -68 0 -83 -3 -88 -17 -4 -9 -1 -22 6 -30 7 -7 90 -27 183 -44
145 -26 187 -30 285 -27 135 6 239 31 350 86 63 31 75 41 75 62 0 35 -17 34
-120 -6z"/>
<path d="M1224 2280 c-23 -5 -93 -25 -155 -45 -142 -46 -273 -56 -414 -31
-111 20 -105 20 -105 -3 0 -49 139 -95 280 -95 81 1 117 7 240 43 80 23 177
44 215 47 64 5 84 1 220 -41 113 -35 167 -47 220 -48 80 -1 128 17 133 50 3
23 0 24 -147 38 -35 4 -93 18 -130 32 -153 59 -252 73 -357 53z"/>
<path d="M1187 2000 c-26 -5 -93 -22 -150 -39 -99 -29 -233 -55 -349 -67 -39
-3 -58 -10 -62 -21 -10 -25 5 -33 75 -43 78 -11 207 2 304 31 149 44 210 59
249 59 23 0 106 -18 185 -40 165 -45 255 -60 397 -62 104 -1 124 3 124 28 0
21 -38 33 -185 55 -144 22 -152 24 -315 67 -132 35 -205 43 -273 32z"/>
<path d="M8845 2005 c-5 -2 -77 -22 -160 -46 -203 -57 -277 -58 -495 -5 -85
21 -187 41 -226 44 -67 4 -72 3 -79 -17 -9 -28 -1 -38 38 -46 17 -4 84 -22
148 -41 285 -82 426 -83 679 -2 146 47 185 70 173 106 -4 11 -53 16 -78 7z"/>
<path d="M7632 1729 c-35 -11 -53 -36 -33 -49 7 -4 56 -10 109 -13 64 -4 145
-18 237 -42 280 -73 391 -81 565 -40 100 24 170 54 170 73 0 4 -6 16 -13 26
-12 16 -19 16 -127 -10 -163 -39 -297 -39 -435 -1 -221 62 -385 81 -473 56z"/>
<path d="M7327 1479 c-20 -5 -55 -18 -77 -29 -31 -16 -40 -26 -40 -46 0 -24 3
-26 28 -20 177 39 350 22 577 -58 215 -75 411 -73 610 6 97 38 135 63 135 89
0 35 -31 33 -155 -9 -238 -81 -370 -76 -652 23 -39 14 -102 32 -140 40 -74 16
-226 18 -286 4z"/>
</g>
</svg>
